<svg xmlns="http://www.w3.org/2000/svg" viewBox="0 0 800 100" preserveAspectRatio="xMidYMid meet" style="max-width:100%;background:#020617;border:1px solid #1e293b;border-radius:8px;display:block;margin:0 auto"><defs><pattern id="g" width="40" height="40" patternUnits="userSpaceOnUse"><path d="M 40 0 L 0 0 0 40" fill="none" stroke="#1e293b" stroke-width="0.5"/></pattern><marker id="a" viewBox="0 0 10 10" refX="9" refY="5" markerWidth="6" markerHeight="6" orient="auto-start-reverse"><path d="M 0 0 L 10 5 L 0 10 z" fill="#475569"/></marker></defs><rect width="800" height="100" fill="url(#g)"/><rect x="80" y="30" width="160" height="50" rx="6" fill="#0f172a"/><rect x="80" y="30" width="160" height="50" rx="6" fill="rgba(30, 41, 59, 0.5)" stroke="#94a3b8" stroke-width="1.5"/><text x="160.0" y="53.0" fill="#e2e8f0" font-family="ui-monospace,SF Mono,monospace" font-size="12" font-weight="600" text-anchor="middle">Inputs</text><text x="160.0" y="67.0" fill="#94a3b8" font-family="ui-monospace,SF Mono,monospace" font-size="9" text-anchor="middle">user / data</text><rect x="320" y="30" width="160" height="50" rx="6" fill="#0f172a"/><rect x="320" y="30" width="160" height="50" rx="6" fill="rgba(6, 78, 59, 0.4)" stroke="#34d399" stroke-width="1.5"/><text x="400.0" y="53.0" fill="#e2e8f0" font-family="ui-monospace,SF Mono,monospace" font-size="12" font-weight="600" text-anchor="middle">App Core</text><text x="400.0" y="67.0" fill="#94a3b8" font-family="ui-monospace,SF Mono,monospace" font-size="9" text-anchor="middle">business logic</text><rect x="560" y="30" width="160" height="50" rx="6" fill="#0f172a"/><rect x="560" y="30" width="160" height="50" rx="6" fill="rgba(6, 78, 59, 0.4)" stroke="#34d399" stroke-width="1.5"/><text x="640.0" y="53.0" fill="#e2e8f0" font-family="ui-monospace,SF Mono,monospace" font-size="12" font-weight="600" text-anchor="middle">Outputs</text><text x="640.0" y="67.0" fill="#94a3b8" font-family="ui-monospace,SF Mono,monospace" font-size="9" text-anchor="middle">API / DB / file</text><line x1="240" y1="55" x2="320" y2="55" stroke="#475569" stroke-width="1.5" marker-end="url(#a)"/><line x1="480" y1="55" x2="560" y2="55" stroke="#475569" stroke-width="1.5" marker-end="url(#a)"/></svg>