<?xml version="1.0" encoding="UTF-8"?>
<svg xmlns="http://www.w3.org/2000/svg" viewBox="0 0 1100 540" width="1100" height="540">
  <defs>
    <pattern id="grid" width="40" height="40" patternUnits="userSpaceOnUse">
      <path d="M 40 0 L 0 0 0 40" fill="none" stroke="#1e293b" stroke-width="0.5"/>
    </pattern>
    <marker id="arrow" viewBox="0 0 10 10" refX="9" refY="5"
            markerWidth="7" markerHeight="7" orient="auto-start-reverse">
      <path d="M 0 0 L 10 5 L 0 10 z" fill="#64748b"/>
    </marker>
    <marker id="arrow-amber" viewBox="0 0 10 10" refX="9" refY="5"
            markerWidth="7" markerHeight="7" orient="auto-start-reverse">
      <path d="M 0 0 L 10 5 L 0 10 z" fill="#fbbf24"/>
    </marker>
    <style>
      .layer-name { font: 600 14px ui-monospace, "SF Mono", monospace; fill: #e2e8f0; }
      .layer-sub  { font: 10px ui-monospace, "SF Mono", monospace; fill: #94a3b8; }
      .legend     { font: 11px ui-monospace, "SF Mono", monospace; fill: #cbd5e1; }
      .title      { font: 700 18px ui-monospace, "SF Mono", monospace; fill: #e2e8f0; }
      .footnote   { font: 10px ui-monospace, "SF Mono", monospace; fill: #64748b; }
    </style>
  </defs>

  <!-- Background -->
  <rect width="1100" height="540" fill="#020617"/>
  <rect width="1100" height="540" fill="url(#grid)"/>

  <!-- Title -->
  <text x="40" y="36" class="title">Persistent Reasoning Engine — 5-Layer Architecture</text>
  <text x="40" y="56" class="footnote">All writes to enterprise_state flow through src/merge.py::merge_fact()</text>

  <!-- Layer 1: INGEST (External) -->
  <g>
    <rect x="60" y="90"  width="160" height="60" rx="6" fill="#0f172a"/>
    <rect x="60" y="90"  width="160" height="60" rx="6" fill="rgba(30,41,59,0.5)" stroke="#94a3b8" stroke-width="1.5"/>
    <text x="140" y="115" class="layer-name" text-anchor="middle">1. Ingest</text>
    <text x="140" y="132" class="layer-sub"   text-anchor="middle">SEC EDGAR</text>

    <rect x="240" y="90" width="160" height="60" rx="6" fill="#0f172a"/>
    <rect x="240" y="90" width="160" height="60" rx="6" fill="rgba(30,41,59,0.5)" stroke="#94a3b8" stroke-width="1.5"/>
    <text x="320" y="115" class="layer-name" text-anchor="middle">2. Parse</text>
    <text x="320" y="132" class="layer-sub"   text-anchor="middle">pdfplumber · BS4</text>

    <rect x="420" y="90" width="160" height="60" rx="6" fill="#0f172a"/>
    <rect x="420" y="90" width="160" height="60" rx="6" fill="rgba(251,191,36,0.3)" stroke="#fbbf24" stroke-width="1.5"/>
    <text x="500" y="115" class="layer-name" text-anchor="middle">3. Extract</text>
    <text x="500" y="132" class="layer-sub"   text-anchor="middle">OpenAI · Anthropic SDKs</text>

    <!-- Merge step — emphasised as the invariant -->
    <rect x="620" y="80" width="200" height="80" rx="8" fill="#0f172a"/>
    <rect x="620" y="80" width="200" height="80" rx="8" fill="rgba(251,113,133,0.25)" stroke="#fb7185" stroke-width="3"/>
    <text x="720" y="105" class="layer-name" text-anchor="middle" fill="#fda4af">4. Merge</text>
    <text x="720" y="123" class="layer-sub"   text-anchor="middle">ONLY writer to</text>
    <text x="720" y="138" class="layer-sub"   text-anchor="middle">enterprise_state</text>
    <text x="720" y="153" class="footnote"    text-anchor="middle">5 invariants · 1 transaction</text>

    <rect x="840" y="90" width="200" height="60" rx="6" fill="#0f172a"/>
    <rect x="840" y="90" width="200" height="60" rx="6" fill="rgba(76,29,149,0.4)" stroke="#a78bfa" stroke-width="1.5"/>
    <text x="940" y="115" class="layer-name" text-anchor="middle">5. Query (FastAPI)</text>
    <text x="940" y="132" class="layer-sub"   text-anchor="middle">/state · /changes</text>

    <!-- Data flow arrows -->
    <line x1="220" y1="120" x2="240" y2="120" stroke="#64748b" stroke-width="1.5" marker-end="url(#arrow)"/>
    <line x1="400" y1="120" x2="420" y2="120" stroke="#64748b" stroke-width="1.5" marker-end="url(#arrow)"/>
    <line x1="580" y1="120" x2="620" y2="120" stroke="#fbbf24" stroke-width="2"   marker-end="url(#arrow-amber)"/>
    <line x1="820" y1="120" x2="840" y2="120" stroke="#64748b" stroke-width="1.5" marker-end="url(#arrow)"/>
  </g>

  <!-- Postgres database (5 tables) -->
  <g>
    <rect x="620" y="220" width="200" height="100" rx="6" fill="#0f172a"/>
    <rect x="620" y="220" width="200" height="100" rx="6" fill="rgba(76,29,149,0.4)" stroke="#a78bfa" stroke-width="1.5"/>
    <text x="720" y="245" class="layer-name" text-anchor="middle">PostgreSQL 15</text>
    <text x="635" y="270" class="layer-sub">enterprise_state               (bitemporal)</text>
    <text x="635" y="284" class="layer-sub">enterprise_state_transitions  (audit log)</text>
    <text x="635" y="298" class="layer-sub">review_queue  sources  entities</text>

    <!-- Merge ↔ DB (write) -->
    <line x1="720" y1="160" x2="720" y2="220" stroke="#fb7185" stroke-width="3" marker-end="url(#arrow)"/>
    <text x="740" y="190" class="footnote" fill="#fda4af">pg_advisory_xact_lock</text>

    <!-- DB ↔ Query (read) -->
    <line x1="840" y1="270" x2="820" y2="150" stroke="#a78bfa" stroke-width="1.5" marker-end="url(#arrow)"/>
  </g>

  <!-- The 5 invariants (left column) -->
  <g>
    <rect x="40" y="370" width="380" height="150" rx="6" fill="#0f172a"/>
    <rect x="40" y="370" width="380" height="150" rx="6" fill="rgba(251,113,133,0.15)" stroke="#fb7185" stroke-width="1.5"/>
    <text x="60" y="395" class="layer-name" fill="#fda4af">The 5 invariants of merge_fact()</text>
    <text x="60" y="415" class="layer-sub">1.  pg_advisory_xact_lock(entity_id)            — serialises merges</text>
    <text x="60" y="431" class="layer-sub">2.  Idempotency   (source_doc_id, section, …)  — writes once</text>
    <text x="60" y="447" class="layer-sub">3.  Confidence gate   &lt; 0.6 → review_queue   — never state</text>
    <text x="60" y="463" class="layer-sub">4.  Conflict detection                — sets prior.valid_until</text>
    <text x="60" y="479" class="layer-sub">5.  Transition log → enterprise_state_transitions</text>
    <text x="60" y="500" class="footnote">There is no second code path to enterprise_state.</text>
  </g>

  <!-- 8 enterprise-object categories (middle column) -->
  <g>
    <rect x="440" y="370" width="300" height="150" rx="6" fill="#0f172a"/>
    <rect x="440" y="370" width="300" height="150" rx="6" fill="rgba(34,211,238,0.15)" stroke="#22d3ee" stroke-width="1.5"/>
    <text x="460" y="395" class="layer-name" fill="#67e8f9">The 8 enterprise-object categories</text>
    <text x="460" y="415" class="layer-sub">· Doctrine                · Capability</text>
    <text x="460" y="431" class="layer-sub">· ActiveState        · ActiveObligation</text>
    <text x="460" y="447" class="layer-sub">· Risk                       · ManagementDecision</text>
    <text x="460" y="463" class="layer-sub">· CausalRelationship</text>
    <text x="460" y="479" class="layer-sub">· EnterpriseTrajectory</text>
    <text x="460" y="500" class="footnote">Each = Pydantic model in src/schemas.py,</text>
    <text x="460" y="514" class="footnote">inheriting FactBase (valid_from/until · confidence · source).</text>
  </g>

  <!-- API endpoints (right column) -->
  <g>
    <rect x="760" y="370" width="320" height="150" rx="6" fill="#0f172a"/>
    <rect x="760" y="370" width="320" height="150" rx="6" fill="rgba(52,211,153,0.15)" stroke="#34d399" stroke-width="1.5"/>
    <text x="780" y="395" class="layer-name" fill="#6ee7b7">Query endpoints  (FastAPI)</text>
    <text x="780" y="415" class="layer-sub">GET /health</text>
    <text x="780" y="431" class="layer-sub">GET /entities/{ticker}/state          · currently valid</text>
    <text x="780" y="447" class="layer-sub">GET /entities/{ticker}/state-as-of    · bitemporal</text>
    <text x="780" y="463" class="layer-sub">GET /entities/{ticker}/changes        · diff window</text>
    <text x="780" y="479" class="layer-sub">GET /entities/{ticker}/risks-active   · active risks</text>
    <text x="780" y="500" class="layer-sub">GET /ui    GET /docs</text>
  </g>
</svg>
