<?xml version="1.0" encoding="UTF-8"?>
<svg xmlns="http://www.w3.org/2000/svg" viewBox="0 0 800 480" width="800" height="480">
  <defs>
    <style>

      .title     { font: 700 18px 'Inter', sans-serif; fill: #0F172A; }
      .subtitle  { font: 11px 'Inter', sans-serif; fill: #64748B; }
      .node-name { font: 600 13px 'Inter', sans-serif; fill: #0F172A; }
      .node-sub  { font: 10px 'Inter', sans-serif; fill: #64748B; }
      .edge-lbl  { font: 500 10px 'Inter', sans-serif; fill: #64748B; }
      .footnote  { font: 10px 'Inter', sans-serif; fill: #64748B; opacity: 0.75; }
    </style>
    <marker id="arrB" viewBox="0 0 10 10" refX="9" refY="5" markerWidth="8" markerHeight="8" orient="auto-start-reverse">
      <path d="M 0 0 L 10 5 L 0 10 z" fill="#64748B"/>
    </marker>
  </defs>
  <rect width="800" height="480" fill="#FFFFFF"/>
  <text x="40" y="38" class="title">File Layout · SPEC §16</text>
  <text x="40" y="58" class="subtitle">REQ-id mappings preserved from the canonical source</text>
  <rect x="40" y="90" width="200" height="90" rx="8" fill="#FFFFFF" stroke="#CBD5E1" stroke-width="1.2"/>
  <rect x="40" y="90" width="4" height="90" rx="2" fill="#64748B"/>
  <text x="56" y="112" class="node-name">Repository root</text>
  <text x="56" y="128" class="node-sub">README · SPEC · Dockerfile</text>
  <rect x="280" y="90" width="460" height="90" rx="8" fill="#FFFFFF" stroke="#CBD5E1" stroke-width="1.2"/>
  <rect x="280" y="90" width="4" height="90" rx="2" fill="#E11D48"/>
  <text x="296" y="112" class="node-name">src/</text>
  <text x="296" y="128" class="node-sub">Python package</text>
  <rect x="280" y="200" width="220" height="60" rx="8" fill="#FFFFFF" stroke="#CBD5E1" stroke-width="1.2"/>
  <rect x="280" y="200" width="4" height="60" rx="2" fill="#E11D48"/>
  <text x="296" y="222" class="node-name">schemas.py</text>
  <text x="296" y="238" class="node-sub">REQ-01 · 8 Pydantic classes</text>
  <rect x="280" y="275" width="220" height="60" rx="8" fill="#FFFFFF" stroke="#CBD5E1" stroke-width="1.2"/>
  <rect x="280" y="275" width="4" height="60" rx="2" fill="#E11D48"/>
  <text x="296" y="297" class="node-name">merge.py</text>
  <text x="296" y="313" class="node-sub">REQ-05..REQ-10 · invariant</text>
  <rect x="280" y="350" width="220" height="60" rx="8" fill="#FFFFFF" stroke="#CBD5E1" stroke-width="1.2"/>
  <rect x="280" y="350" width="4" height="60" rx="2" fill="#F97316"/>
  <text x="296" y="372" class="node-name">extract.py</text>
  <text x="296" y="388" class="node-sub">REQ-11 · LLM tool-call</text>
  <rect x="520" y="200" width="220" height="60" rx="8" fill="#FFFFFF" stroke="#CBD5E1" stroke-width="1.2"/>
  <rect x="520" y="200" width="4" height="60" rx="2" fill="#2563EB"/>
  <text x="536" y="222" class="node-name">api.py</text>
  <text x="536" y="238" class="node-sub">REQ-12, REQ-13, REQ-14</text>
  <rect x="520" y="275" width="220" height="60" rx="8" fill="#FFFFFF" stroke="#CBD5E1" stroke-width="1.2"/>
  <rect x="520" y="275" width="4" height="60" rx="2" fill="#0E7490"/>
  <text x="536" y="297" class="node-name">schema.sql</text>
  <text x="536" y="313" class="node-sub">REQ-03 · DDL</text>
  <rect x="520" y="350" width="220" height="60" rx="8" fill="#FFFFFF" stroke="#CBD5E1" stroke-width="1.2"/>
  <rect x="520" y="350" width="4" height="60" rx="2" fill="#64748B"/>
  <text x="536" y="372" class="node-name">seed.py</text>
  <text x="536" y="388" class="node-sub">PoC MSFT/AMZN seed</text>
  <rect x="40" y="200" width="200" height="90" rx="8" fill="#FFFFFF" stroke="#CBD5E1" stroke-width="1.2"/>
  <rect x="40" y="200" width="4" height="90" rx="2" fill="#0E7490"/>
  <text x="56" y="222" class="node-name">tests/</text>
  <text x="56" y="238" class="node-sub">pytest · 50 tests</text>
  <rect x="40" y="305" width="200" height="60" rx="8" fill="#FFFFFF" stroke="#CBD5E1" stroke-width="1.2"/>
  <rect x="40" y="305" width="4" height="60" rx="2" fill="#2563EB"/>
  <text x="56" y="327" class="node-name">test_schemas.py</text>
  <text x="56" y="343" class="node-sub">15 tests · all 8 schemas</text>
  <rect x="40" y="380" width="200" height="60" rx="8" fill="#FFFFFF" stroke="#CBD5E1" stroke-width="1.2"/>
  <rect x="40" y="380" width="4" height="60" rx="2" fill="#2563EB"/>
  <text x="56" y="402" class="node-name">test_merge.py</text>
  <text x="56" y="418" class="node-sub">9 tests · 5 invariants</text>
  <line x1="240" y1="135" x2="280" y2="135" stroke="#64748B" stroke-width="1.4" marker-end="url(#arrB)"/>
  <line x1="240" y1="245" x2="280" y2="245" stroke="#64748B" stroke-width="1.4" marker-end="url(#arrB)"/>
</svg>
