<?xml version="1.0" encoding="UTF-8"?>
<svg xmlns="http://www.w3.org/2000/svg" viewBox="0 0 900 580" width="900" height="580">
  <defs>
    <style>

      .title     { font: 700 18px 'Inter', sans-serif; fill: #0F172A; }
      .subtitle  { font: 11px 'Inter', sans-serif; fill: #64748B; }
      .node-name { font: 600 13px 'Inter', sans-serif; fill: #0F172A; }
      .node-sub  { font: 10px 'Inter', sans-serif; fill: #64748B; }
      .edge-lbl  { font: 500 10px 'Inter', sans-serif; fill: #64748B; }
      .footnote  { font: 10px 'Inter', sans-serif; fill: #64748B; opacity: 0.75; }
    </style>
    <marker id="arrB" viewBox="0 0 10 10" refX="9" refY="5" markerWidth="8" markerHeight="8" orient="auto-start-reverse">
      <path d="M 0 0 L 10 5 L 0 10 z" fill="#64748B"/>
    </marker>
  </defs>
  <rect width="900" height="580" fill="#FFFFFF"/>
  <text x="40" y="38" class="title">Project Structure</text>
  <text x="40" y="58" class="subtitle">REQs visible per file via colour accent</text>
  <rect x="40" y="90" width="820" height="60" rx="8" fill="#FFFFFF" stroke="#CBD5E1" stroke-width="1.2"/>
  <rect x="40" y="90" width="4" height="60" rx="2" fill="#64748B"/>
  <text x="56" y="112" class="node-name">.</text>
  <text x="56" y="128" class="node-sub">README · SPEC · Dockerfile · requirements.txt · pytest.ini · .env.example · conftest.py</text>
  <rect x="40" y="170" width="400" height="70" rx="8" fill="#FFFFFF" stroke="#CBD5E1" stroke-width="1.2"/>
  <rect x="40" y="170" width="4" height="70" rx="2" fill="#1B9AAA"/>
  <text x="56" y="192" class="node-name">diagrams/</text>
  <text x="56" y="208" class="node-sub">architecture.svg · workflow.svg · project-structure.svg · file-layout.svg</text>
  <rect x="460" y="170" width="400" height="70" rx="8" fill="#FFFFFF" stroke="#CBD5E1" stroke-width="1.2"/>
  <rect x="460" y="170" width="4" height="70" rx="2" fill="#0E7490"/>
  <text x="476" y="192" class="node-name">docs/</text>
  <text x="476" y="208" class="node-sub">OUT_OF_SCOPE.md</text>
  <rect x="40" y="260" width="500" height="270" rx="8" fill="#FFFFFF" stroke="#CBD5E1" stroke-width="1.2"/>
  <rect x="40" y="260" width="4" height="270" rx="2" fill="#E11D48"/>
  <text x="56" y="282" class="node-name">src/</text>
  <text x="56" y="298" class="node-sub">Python package</text>
  <text x="60" y="295" class="node-name" fill="#0F172A">invariant core</text>
  <rect x="60" y="305" width="220" height="60" rx="8" fill="#FFFFFF" stroke="#CBD5E1" stroke-width="1.2"/>
  <rect x="60" y="305" width="4" height="60" rx="2" fill="#2563EB"/>
  <text x="76" y="327" class="node-name">schemas.py</text>
  <text x="76" y="343" class="node-sub">REQ-01</text>
  <rect x="60" y="380" width="220" height="60" rx="8" fill="#FFFFFF" stroke="#CBD5E1" stroke-width="1.2"/>
  <rect x="60" y="380" width="4" height="60" rx="2" fill="#2563EB"/>
  <text x="76" y="402" class="node-name">merge.py</text>
  <text x="76" y="418" class="node-sub">REQ-05..REQ-10</text>
  <rect x="310" y="305" width="220" height="60" rx="8" fill="#FFFFFF" stroke="#CBD5E1" stroke-width="1.2"/>
  <rect x="310" y="305" width="4" height="60" rx="2" fill="#2563EB"/>
  <text x="326" y="327" class="node-name">api.py</text>
  <text x="326" y="343" class="node-sub">FastAPI · 5 endpoints</text>
  <rect x="310" y="380" width="220" height="60" rx="8" fill="#FFFFFF" stroke="#CBD5E1" stroke-width="1.2"/>
  <rect x="310" y="380" width="4" height="60" rx="2" fill="#2563EB"/>
  <text x="326" y="402" class="node-name">extract.py</text>
  <text x="326" y="418" class="node-sub">REQ-11 · tool-call</text>
  <rect x="310" y="455" width="220" height="60" rx="8" fill="#FFFFFF" stroke="#CBD5E1" stroke-width="1.2"/>
  <rect x="310" y="455" width="4" height="60" rx="2" fill="#2563EB"/>
  <text x="326" y="477" class="node-name">parse.py / edgar.py</text>
  <text x="326" y="493" class="node-sub">PDF / EDGAR ingest</text>
  <rect x="560" y="260" width="300" height="270" rx="8" fill="#FFFFFF" stroke="#CBD5E1" stroke-width="1.2"/>
  <rect x="560" y="260" width="4" height="270" rx="2" fill="#0E7490"/>
  <text x="576" y="282" class="node-name">tests/</text>
  <text x="576" y="298" class="node-sub">50 tests · pytest</text>
  <text x="580" y="295" class="node-name" fill="#0F172A">invariants</text>
  <rect x="580" y="305" width="260" height="60" rx="8" fill="#FFFFFF" stroke="#CBD5E1" stroke-width="1.2"/>
  <rect x="580" y="305" width="4" height="60" rx="2" fill="#2563EB"/>
  <text x="596" y="327" class="node-name">test_merge.py</text>
  <text x="596" y="343" class="node-sub">9 tests · 5 invariants</text>
  <rect x="580" y="380" width="260" height="60" rx="8" fill="#FFFFFF" stroke="#CBD5E1" stroke-width="1.2"/>
  <rect x="580" y="380" width="4" height="60" rx="2" fill="#2563EB"/>
  <text x="596" y="402" class="node-name">test_schemas.py</text>
  <text x="596" y="418" class="node-sub">15 tests</text>
  <rect x="580" y="455" width="260" height="60" rx="8" fill="#FFFFFF" stroke="#CBD5E1" stroke-width="1.2"/>
  <rect x="580" y="455" width="4" height="60" rx="2" fill="#2563EB"/>
  <text x="596" y="477" class="node-name">+ 4 more test files</text>
  <text x="596" y="493" class="node-sub">~875 LOC</text>
</svg>
