<?xml version="1.0" encoding="UTF-8"?>
<svg xmlns="http://www.w3.org/2000/svg" viewBox="0 0 1100 700" width="1100" height="700">
  <defs>
    <style>

      .title     { font: 700 18px 'Inter', sans-serif; fill: #1E3A8A; }
      .subtitle  { font: 11px 'Inter', sans-serif; fill: #6B7280; }
      .node-name { font: 600 13px 'Inter', sans-serif; fill: #1E3A8A; }
      .node-sub  { font: 10px 'Inter', sans-serif; fill: #6B7280; }
      .edge-lbl  { font: 600 10px 'Inter', sans-serif; fill: #F97316; }
      .footnote  { font: 10px 'Inter', sans-serif; fill: #6B7280; }
      .stage-tag { font: 700 11px 'Inter', sans-serif; fill: #F97316; letter-spacing: 1.2px; }
    </style>
    <linearGradient id="edgeGlowC" x1="0%" y1="0%" x2="100%" y2="0%">
      <stop offset="0%"   stop-color="#F97316" stop-opacity="0.2"/>
      <stop offset="50%"  stop-color="#F97316" stop-opacity="1"/>
      <stop offset="100%" stop-color="#F97316" stop-opacity="0.2"/>
    </linearGradient>
  </defs>
  <rect width="1100" height="700" fill="#FFFFFF"/>
  <text x="40" y="38" class="title">Persistent Reasoning Engine · End-to-End Data Pipeline</text>
  <text x="40" y="58" class="subtitle">SEC EDGAR → sectionize → LLM extract → merge_fact (only writer) → Postgres 15 → temporal query</text>
  <rect x="40" y="110" width="160" height="110" rx="6" fill="#FFFFFF" stroke="#E5E7EB" stroke-width="1.2"/>
  <rect x="40" y="110" width="160" height="6" rx="3" fill="#3B82F6"/>
  <rect x="40" y="113" width="160" height="3" fill="#3B82F6"/>
  <text x="54" y="134" class="stage-tag">01 · SOURCE</text>
  <text x="54" y="156" class="node-name">SEC EDGAR</text>
  <text x="54" y="174" class="node-sub">httpx · semaphore</text>
  <rect x="230" y="110" width="160" height="110" rx="6" fill="#FFFFFF" stroke="#E5E7EB" stroke-width="1.2"/>
  <rect x="230" y="110" width="160" height="6" rx="3" fill="#3B82F6"/>
  <rect x="230" y="113" width="160" height="3" fill="#3B82F6"/>
  <text x="244" y="134" class="stage-tag">02 · INGEST</text>
  <text x="244" y="156" class="node-name">Fetch 10-K</text>
  <text x="244" y="174" class="node-sub">User-Agent + throttle</text>
  <rect x="420" y="110" width="160" height="110" rx="6" fill="#FFFFFF" stroke="#E5E7EB" stroke-width="1.2"/>
  <rect x="420" y="110" width="160" height="6" rx="3" fill="#F97316"/>
  <rect x="420" y="113" width="160" height="3" fill="#F97316"/>
  <text x="434" y="134" class="stage-tag">03 · TRANSFORM</text>
  <text x="434" y="156" class="node-name">Parse sections</text>
  <text x="434" y="174" class="node-sub">Item 1 / 1A / 7 / 8</text>
  <rect x="610" y="110" width="160" height="110" rx="6" fill="#FFFFFF" stroke="#E5E7EB" stroke-width="1.2"/>
  <rect x="610" y="110" width="160" height="6" rx="3" fill="#F97316"/>
  <rect x="610" y="113" width="160" height="3" fill="#F97316"/>
  <text x="624" y="134" class="stage-tag">04 · EXTRACT</text>
  <text x="624" y="156" class="node-name">Extract facts</text>
  <text x="624" y="174" class="node-sub">Pydantic tool-call</text>
  <rect x="800" y="110" width="160" height="110" rx="6" fill="#FFFFFF" stroke="#E5E7EB" stroke-width="1.2"/>
  <rect x="800" y="110" width="160" height="6" rx="3" fill="#EA580C"/>
  <rect x="800" y="113" width="160" height="3" fill="#EA580C"/>
  <text x="814" y="134" class="stage-tag">05 · INVARIANT</text>
  <text x="814" y="156" class="node-name">merge_fact()</text>
  <text x="814" y="174" class="node-sub">the ONLY writer</text>
  <ellipse cx="880" cy="362.0" rx="90.0" ry="14" fill="#FFFFFF" stroke="#1E3A8A" stroke-width="1.6"/>
  <path d="M 790.0 362.0
           v 36
           a 90.0 14 0 0 0 180.0 0
           v -36" fill="#FFFFFF" stroke="#1E3A8A" stroke-width="1.6"/>
  <text x="880" y="420.0" class="node-name" text-anchor="middle">Postgres 15</text>
  <text x="880" y="436.0" class="node-sub" text-anchor="middle">bitemporal · JSONB</text>
  <rect x="800" y="470" width="260" height="110" rx="6" fill="#FFFFFF" stroke="#E5E7EB" stroke-width="1.2"/>
  <rect x="800" y="470" width="260" height="6" rx="3" fill="#3B82F6"/>
  <rect x="800" y="473" width="260" height="3" fill="#3B82F6"/>
  <text x="814" y="494" class="stage-tag">06 · QUERY</text>
  <text x="814" y="516" class="node-name">FastAPI · 5 query endpoints</text>
  <defs>
    <marker id="arrC" viewBox="0 0 10 10" refX="9" refY="5" markerWidth="8" markerHeight="8" orient="auto-start-reverse">
      <path d="M 0 0 L 10 5 L 0 10 z" fill="#F97316"/>
    </marker>
  </defs>
  <line x1="200" y1="165" x2="230" y2="165" stroke="#1E3A8A" stroke-width="2" marker-end="url(#arrC)"/>
  <defs>
    <marker id="arrC" viewBox="0 0 10 10" refX="9" refY="5" markerWidth="8" markerHeight="8" orient="auto-start-reverse">
      <path d="M 0 0 L 10 5 L 0 10 z" fill="#F97316"/>
    </marker>
  </defs>
  <line x1="390" y1="165" x2="420" y2="165" stroke="#1E3A8A" stroke-width="2" marker-end="url(#arrC)"/>
  <defs>
    <marker id="arrC" viewBox="0 0 10 10" refX="9" refY="5" markerWidth="8" markerHeight="8" orient="auto-start-reverse">
      <path d="M 0 0 L 10 5 L 0 10 z" fill="#F97316"/>
    </marker>
  </defs>
  <line x1="580" y1="165" x2="610" y2="165" stroke="#1E3A8A" stroke-width="2" marker-end="url(#arrC)"/>
  <defs>
    <marker id="arrC" viewBox="0 0 10 10" refX="9" refY="5" markerWidth="8" markerHeight="8" orient="auto-start-reverse">
      <path d="M 0 0 L 10 5 L 0 10 z" fill="#F97316"/>
    </marker>
  </defs>
  <line x1="770" y1="165" x2="800" y2="165" stroke="#1E3A8A" stroke-width="2" marker-end="url(#arrC)"/>
  <line x1="880" y1="220" x2="880" y2="345" stroke="#1E3A8A" stroke-width="2.4"/>
  <path d="M 875 340 l 5 8 l 5 -8 z" fill="#F97316"/>
  <text x="895" y="290" class="edge-lbl">INSERT</text>
  <line x1="880" y1="410" x2="880" y2="470" stroke="#6B7280" stroke-width="1.6" stroke-dasharray="4 3"/>
  <text x="900" y="445" class="footnote">read</text>
  <rect x="40" y="610" width="1020" height="70" rx="6" fill="#F9FAFB" stroke="#E5E7EB" stroke-width="1"/>
  <text x="60" y="632" class="node-name">5 invariants of merge_fact()  ·  ONE writer to enterprise_state</text>
  <text x="60" y="652" class="node-sub">1. pg_advisory_xact_lock(entity_id)  ·  2. idempotency  ·  3. confidence gate &lt; 0.6 → review_queue  ·  4. conflict detection  ·  5. transition log</text>
</svg>
